<svg width="227" height="51" viewBox="0 0 227 51" fill="none" xmlns="http://www.w3.org/2000/svg">
<rect x="89" width="138" height="51" rx="9" fill="white"/>
<path d="M0.360085 43V8.09091H12.5646C14.9964 8.09091 17.0021 8.51136 18.5817 9.35227C20.1612 10.1818 21.3374 11.3011 22.1101 12.7102C22.8828 14.108 23.2692 15.6591 23.2692 17.3636C23.2692 18.8636 23.0021 20.1023 22.468 21.0795C21.9453 22.0568 21.2521 22.8295 20.3885 23.3977C19.5362 23.9659 18.6101 24.3864 17.6101 24.6591V25C18.6783 25.0682 19.7521 25.4432 20.8317 26.125C21.9112 26.8068 22.8146 27.7841 23.5419 29.0568C24.2692 30.3295 24.6328 31.8864 24.6328 33.7273C24.6328 35.4773 24.2351 37.0511 23.4396 38.4489C22.6442 39.8466 21.3885 40.9545 19.6726 41.7727C17.9567 42.5909 15.7237 43 12.9737 43H0.360085ZM4.58736 39.25H12.9737C15.7351 39.25 17.6953 38.7159 18.8544 37.6477C20.0249 36.5682 20.6101 35.2614 20.6101 33.7273C20.6101 32.5455 20.3089 31.4545 19.7067 30.4545C19.1044 29.4432 18.2464 28.6364 17.1328 28.0341C16.0192 27.4205 14.701 27.1136 13.1783 27.1136H4.58736V39.25ZM4.58736 23.4318H12.4283C13.701 23.4318 14.8487 23.1818 15.8714 22.6818C16.9055 22.1818 17.7237 21.4773 18.326 20.5682C18.9396 19.6591 19.2464 18.5909 19.2464 17.3636C19.2464 15.8295 18.7124 14.5284 17.6442 13.4602C16.576 12.3807 14.8828 11.8409 12.5646 11.8409H4.58736V23.4318ZM31.5788 43V8.09091H35.8061V39.25H52.0334V43H31.5788ZM81.4879 8.09091H85.7152V31.2045C85.7152 33.5909 85.1527 35.7216 84.0277 37.5966C82.9141 39.4602 81.3402 40.9318 79.3061 42.0114C77.272 43.0795 74.8857 43.6136 72.147 43.6136C69.4084 43.6136 67.022 43.0795 64.9879 42.0114C62.9538 40.9318 61.3743 39.4602 60.2493 37.5966C59.1357 35.7216 58.5788 33.5909 58.5788 31.2045V8.09091H62.8061V30.8636C62.8061 32.5682 63.1811 34.0852 63.9311 35.4148C64.6811 36.733 65.7493 37.7727 67.1357 38.5341C68.5334 39.2841 70.2038 39.6591 72.147 39.6591C74.0902 39.6591 75.7607 39.2841 77.1584 38.5341C78.5561 37.7727 79.6243 36.733 80.3629 35.4148C81.1129 34.0852 81.4879 32.5682 81.4879 30.8636V8.09091Z" fill="white"/>
<path d="M121.839 8.09091V43H117.748L98.7251 15.5909H98.3842V43H94.157V8.09091H98.2479L117.339 35.5682H117.68V8.09091H121.839ZM159.752 25.5455C159.752 29.2273 159.087 32.4091 157.758 35.0909C156.428 37.7727 154.604 39.8409 152.286 41.2955C149.968 42.75 147.32 43.4773 144.343 43.4773C141.366 43.4773 138.718 42.75 136.4 41.2955C134.082 39.8409 132.258 37.7727 130.928 35.0909C129.599 32.4091 128.934 29.2273 128.934 25.5455C128.934 21.8636 129.599 18.6818 130.928 16C132.258 13.3182 134.082 11.25 136.4 9.79545C138.718 8.34091 141.366 7.61364 144.343 7.61364C147.32 7.61364 149.968 8.34091 152.286 9.79545C154.604 11.25 156.428 13.3182 157.758 16C159.087 18.6818 159.752 21.8636 159.752 25.5455ZM155.661 25.5455C155.661 22.5227 155.156 19.9716 154.144 17.892C153.144 15.8125 151.786 14.2386 150.07 13.1705C148.366 12.1023 146.457 11.5682 144.343 11.5682C142.229 11.5682 140.315 12.1023 138.599 13.1705C136.894 14.2386 135.536 15.8125 134.525 17.892C133.525 19.9716 133.025 22.5227 133.025 25.5455C133.025 28.5682 133.525 31.1193 134.525 33.1989C135.536 35.2784 136.894 36.8523 138.599 37.9205C140.315 38.9886 142.229 39.5227 144.343 39.5227C146.457 39.5227 148.366 38.9886 150.07 37.9205C151.786 36.8523 153.144 35.2784 154.144 33.1989C155.156 31.1193 155.661 28.5682 155.661 25.5455ZM166.651 8.09091L177.015 37.4773H177.424L187.788 8.09091H192.219L179.401 43H175.038L162.219 8.09091H166.651ZM196.089 43H191.657L204.475 8.09091H208.839L221.657 43H217.225L206.793 13.6136H206.521L196.089 43ZM197.725 29.3636H215.589V33.1136H197.725V29.3636Z" fill="#1867DD"/>
</svg>
