<svg width="190" height="47" viewBox="0 0 190 47" fill="none" xmlns="http://www.w3.org/2000/svg">
<rect width="82" height="47" rx="9" fill="#1867DD"/>
<path d="M5.05007 38V8.90909H15.2205C17.247 8.90909 18.9184 9.25947 20.2347 9.96023C21.551 10.6515 22.5311 11.5843 23.1751 12.7585C23.819 13.9233 24.141 15.2159 24.141 16.6364C24.141 17.8864 23.9184 18.9186 23.4734 19.733C23.0378 20.5473 22.4601 21.1913 21.7404 21.6648C21.0302 22.1383 20.2584 22.4886 19.4251 22.7159V23C20.3152 23.0568 21.2101 23.3693 22.1097 23.9375C23.0094 24.5057 23.7622 25.3201 24.3683 26.3807C24.9743 27.4413 25.2773 28.7386 25.2773 30.2727C25.2773 31.7311 24.9459 33.0426 24.283 34.2074C23.6201 35.3722 22.5737 36.2955 21.1438 36.9773C19.7139 37.6591 17.8531 38 15.5614 38H5.05007ZM8.5728 34.875H15.5614C17.8626 34.875 19.4961 34.4299 20.462 33.5398C21.4374 32.6402 21.9251 31.5511 21.9251 30.2727C21.9251 29.2879 21.6741 28.3788 21.1722 27.5455C20.6703 26.7027 19.9554 26.0303 19.0273 25.5284C18.0993 25.017 17.0008 24.7614 15.7319 24.7614H8.5728V34.875ZM8.5728 21.6932H15.1069C16.1675 21.6932 17.1239 21.4848 17.9762 21.0682C18.8379 20.6515 19.5198 20.0644 20.0217 19.3068C20.533 18.5492 20.7887 17.6591 20.7887 16.6364C20.7887 15.358 20.3436 14.2737 19.4535 13.3835C18.5633 12.4839 17.1523 12.0341 15.2205 12.0341H8.5728V21.6932ZM31.0657 38V8.90909H34.5884V34.875H48.1112V38H31.0657ZM72.6566 8.90909H76.1793V28.1705C76.1793 30.1591 75.7106 31.9347 74.7731 33.4972C73.8451 35.0502 72.5335 36.2765 70.8384 37.1761C69.1433 38.0663 67.1547 38.5114 64.8725 38.5114C62.5903 38.5114 60.6017 38.0663 58.9066 37.1761C57.2115 36.2765 55.8952 35.0502 54.9577 33.4972C54.0297 31.9347 53.5657 30.1591 53.5657 28.1705V8.90909H57.0884V27.8864C57.0884 29.3068 57.4009 30.571 58.0259 31.679C58.6509 32.7775 59.5411 33.6439 60.6964 34.2784C61.8612 34.9034 63.2532 35.2159 64.8725 35.2159C66.4918 35.2159 67.8839 34.9034 69.0487 34.2784C70.2134 33.6439 71.1036 32.7775 71.7191 31.679C72.3441 30.571 72.6566 29.3068 72.6566 27.8864V8.90909Z" fill="white"/>
<path d="M106.282 8.90909V38H102.873L87.021 15.1591H86.7369V38H83.2141V8.90909H86.6232L102.532 31.8068H102.816V8.90909H106.282ZM137.877 23.4545C137.877 26.5227 137.323 29.1742 136.215 31.4091C135.107 33.6439 133.587 35.3674 131.655 36.5795C129.723 37.7917 127.517 38.3977 125.036 38.3977C122.555 38.3977 120.348 37.7917 118.417 36.5795C116.485 35.3674 114.965 33.6439 113.857 31.4091C112.749 29.1742 112.195 26.5227 112.195 23.4545C112.195 20.3864 112.749 17.7348 113.857 15.5C114.965 13.2652 116.485 11.5417 118.417 10.3295C120.348 9.11742 122.555 8.51136 125.036 8.51136C127.517 8.51136 129.723 9.11742 131.655 10.3295C133.587 11.5417 135.107 13.2652 136.215 15.5C137.323 17.7348 137.877 20.3864 137.877 23.4545ZM134.468 23.4545C134.468 20.9356 134.046 18.8097 133.203 17.0767C132.37 15.3438 131.239 14.0322 129.809 13.142C128.388 12.2519 126.797 11.8068 125.036 11.8068C123.275 11.8068 121.679 12.2519 120.249 13.142C118.828 14.0322 117.697 15.3438 116.854 17.0767C116.021 18.8097 115.604 20.9356 115.604 23.4545C115.604 25.9735 116.021 28.0994 116.854 29.8324C117.697 31.5653 118.828 32.8769 120.249 33.767C121.679 34.6572 123.275 35.1023 125.036 35.1023C126.797 35.1023 128.388 34.6572 129.809 33.767C131.239 32.8769 132.37 31.5653 133.203 29.8324C134.046 28.0994 134.468 25.9735 134.468 23.4545ZM143.626 8.90909L152.262 33.3977H152.603L161.24 8.90909H164.933L154.251 38H150.615L139.933 8.90909H143.626ZM168.157 38H164.464L175.146 8.90909H178.782L189.464 38H185.771L177.078 13.5114H176.85L168.157 38ZM169.521 26.6364H184.407V29.7614H169.521V26.6364Z" fill="#1867DD"/>
</svg>
